<svg xmlns="http://www.w3.org/2000/svg" width="60" height="58" viewBox="0 0 60 58">
  <path d="M40.9221143,36.8065013 C48.3591373,31.9795712 51.7346406,22.835322 49.2176161,14.3339601 C46.7005916,5.83259822 38.8908467,5.45011097e-16 30.0246995,0 C21.1585523,-5.41583354e-16 13.3488074,5.83259822 10.8317829,14.3339601 C8.31475837,22.835322 11.6902616,31.9795712 19.1272847,36.8065013 C8.32890237,37.7094911 0.0187484315,46.7278968 0,57.5639523 L4.99917668,57.5639523 C5.03168232,48.8471152 12.0900129,41.7887847 20.80685,41.756279 L39.19315,41.756279 C47.9099871,41.7887847 54.9683177,48.8471152 55.0008233,57.5639523 L60,57.5639523 C59.9834544,46.7453157 51.700962,37.7336551 40.9221143,36.8065013 L40.9221143,36.8065013 Z M15.0172896,20.0108484 C15.0336514,11.7263628 21.7599255,5.02218851 30.0444201,5.03309097 C38.3289146,5.04399342 45.03752,11.7658482 45.0320768,20.0503481 C45.0266337,28.3348481 38.3092012,35.0478815 30.0246995,35.0478977 C21.736991,35.042456 15.0183058,28.328191 15.0074098,20.0404878 L15.0172896,20.0108484 Z"/>
</svg>
