<svg xmlns="http://www.w3.org/2000/svg" width="60" height="56" viewBox="0 0 60 56">
  <path d="M39.2097264,55.4133739 C38.6096371,55.3947022 38.0404654,55.1428273 37.6231003,54.7112462 L24.4468085,41.56231 L17.2340426,41.56231 C7.72011034,41.5522583 0.0100517065,33.8421997 0,24.3282675 L0,17.2340426 C0.0100517065,7.72011034 7.72011034,0.0100517065 17.2340426,0 L42.7659574,0 C52.2798897,0.0100517065 59.9899483,7.72011034 60,17.2340426 L60,24.3282675 C59.9899483,33.8421997 52.2798897,41.5522583 42.7659574,41.56231 L41.56231,41.56231 L41.56231,53.106383 C41.5624311,53.726217 41.3131252,54.3200258 40.870569,54.7540053 C40.4280128,55.1879849 39.8294394,55.4256236 39.2097264,55.4133739 L39.2097264,55.4133739 Z M17.2340426,4.61398176 C10.2662596,4.61901084 4.61901084,10.2662596 4.61398176,17.2340426 L4.61398176,24.3282675 C4.61901084,31.2960504 10.2662596,36.9432992 17.2340426,36.9483283 L25.4407295,36.9483283 C26.0527702,36.9478349 26.6399235,37.1905686 27.0729483,37.6231003 L36.9483283,47.5349544 L36.9483283,39.2097264 C36.9725769,37.9709739 37.9709739,36.9725769 39.2097264,36.9483283 L42.7568389,36.9483283 C46.1094632,36.9555912 49.3273932,35.6294795 51.7014806,33.2622339 C54.075568,30.8949882 55.4109611,27.6808988 55.4133739,24.3282675 L55.4133739,17.2340426 C55.4083528,10.2698154 49.7666533,4.6240366 42.8024316,4.61398176 L17.2340426,4.61398176 Z"/>
</svg>
