<svg xmlns="http://www.w3.org/2000/svg" width="60" height="60" viewBox="0 0 60 60">
  <path d="M60,29.9985926 C59.9985346,17.0452965 51.6834176,5.55577473 39.3794891,1.50593195 C27.0755607,-2.54391083 13.5618205,1.76063418 5.86700519,12.1806965 C-1.82781009,22.6007589 -1.96572798,36.7828342 5.52498507,47.3505729 C13.0156981,57.9183115 26.4431687,62.4848545 38.8235306,58.6750616 L38.9735306,58.7544733 L39.0529423,58.6044733 C51.5153742,54.6421724 59.9850559,43.0757411 60,29.9985926 Z M30.0000017,4.61329987 C33.3120995,4.61210883 36.5920592,5.26270411 39.6529423,6.52800565 L35.9911778,9.90741723 C35.6629728,10.1906022 35.4213581,10.5606701 35.294119,10.9750642 L32.4617662,21.0868284 C32.1086849,20.8792593 31.7066348,20.7696092 31.2970604,20.7691813 L23.0735315,20.7691813 C21.7967791,20.7691813 20.7617669,21.8041936 20.7617669,23.0809459 L20.7617669,28.8868279 C20.7595567,29.511417 21.0111375,30.1101154 21.4588257,30.5456514 L26.1794136,35.1250629 C26.6097495,35.5427719 27.1855722,35.7768977 27.7852959,35.778004 L34.2794132,35.778004 L42.8558833,41.1515331 L35.8764719,54.7044736 C34.0632785,55.1366552 32.2079363,55.3674633 30.3441193,55.3927088 L21.9264727,46.3927093 L21.9264727,35.0280041 C21.9235861,34.3834339 21.6517209,33.7693383 21.1764727,33.3338865 L12.6176497,25.4368281 L9.08823812,15.5897699 C13.8266845,8.71135784 21.6474346,4.60628897 30.0000017,4.61329987 Z M4.61470896,29.9985926 C4.60514322,26.9878325 5.13405634,23.9996228 6.17647358,21.1750637 L8.43529698,27.5280045 C8.56629854,27.8657633 8.77484643,28.1680066 9.04412048,28.4103574 L17.276473,36.0074158 L17.276473,47.3103563 C17.2772362,47.8972631 17.5012017,48.4619086 17.9029435,48.889768 L23.1000021,54.4397677 C12.168238,51.3397439 4.6214458,41.3614077 4.61470896,29.9985926 Z M42.3529422,52.1456502 L47.9205889,41.3721214 C48.4750302,40.3040346 48.1136282,38.9891463 47.0911772,38.3544745 L36.1764719,31.507416 C35.809062,31.2765753 35.3839109,31.1542297 34.9500014,31.1544749 L28.738237,31.1544749 L25.385296,27.9074162 L25.385296,25.383887 L30.6794134,25.383887 L35.6558837,28.436828 C36.6163044,29.0036894 37.8445125,28.8040727 38.5759817,27.9622339 C39.307451,27.120395 39.3336356,25.8763467 38.6382365,25.0044752 L36.8029425,22.7809459 L39.6264717,12.8632994 L44.0382362,8.82212317 C51.4290922,13.7110268 55.7318398,22.10335 55.3873863,30.9581501 C55.0429327,39.8129501 50.1012479,47.845663 42.3529422,52.1456502 Z"/>
</svg>
